<svg xmlns="http://www.w3.org/2000/svg" width="40" height="48" viewBox="0 0 40 48" fill="none">
  <path fill-rule="evenodd" clip-rule="evenodd" d="M28.7782 0C29.197 2.91548 28.0392 5.7717 26.5119 7.7925C24.8779 9.96006 22.0615 11.6365 19.3327 11.549C18.8346 8.75774 20.11 5.88177 21.6619 3.94846C23.3644 1.81477 26.282 0.177808 28.7782 0ZM36.9756 41.0369C38.3824 38.827 38.9079 37.7122 40 35.2172C32.0572 32.1211 30.7844 20.5467 38.6452 16.1043C36.2475 13.0223 32.8783 11.2358 29.6978 11.2358C27.4062 11.2358 25.8361 11.8487 24.4087 12.406C23.2191 12.8704 22.1287 13.2961 20.8025 13.2961C19.3693 13.2961 18.1002 12.8296 16.7713 12.3413C15.311 11.8046 13.7786 11.2414 11.8771 11.2414C8.30798 11.2414 4.50899 13.4767 2.1004 17.2982C-1.2853 22.6804 -0.707785 32.7985 4.78269 41.4179C6.74514 44.5028 9.36721 47.9686 12.7967 47.9997C14.2197 48.0141 15.1667 47.5788 16.1914 47.1077C17.3643 46.5685 18.6391 45.9824 20.8463 45.9704C23.0665 45.9567 24.3212 46.5499 25.4785 47.0971C26.477 47.5691 27.4029 48.0069 28.8138 47.9912C32.246 47.963 35.0131 44.1217 36.9756 41.0369Z" fill="#1C1C1C"/>
</svg>