<svg xmlns="http://www.w3.org/2000/svg" width="48" height="48" viewBox="0 0 48 48" fill="none">
  <path d="M24.4899 9.28001C29.0885 9.28001 32.1905 11.2267 33.9592 12.8533L40.8708 6.24C36.6259 2.37333 31.1021 0 24.4899 0C14.9116 0 6.63952 5.38667 2.6123 13.2267L10.5307 19.2533C12.5171 13.4667 18.0137 9.28001 24.4899 9.28001Z" fill="#F25022"/>
  <path d="M48 24.5336C48 22.5603 47.8367 21.1203 47.4829 19.627H24.4897V28.5336H37.9863C37.7142 30.747 36.2449 34.0803 32.9795 36.3203L40.7074 42.187C45.3333 38.0003 48 31.8403 48 24.5336Z" fill="#4285F4"/>
  <path d="M10.5578 28.7466C10.0408 27.2532 9.7415 25.6532 9.7415 23.9999C9.7415 22.3466 10.0408 20.7466 10.5306 19.2532L2.61225 13.2266C0.952381 16.4799 0 20.1332 0 23.9999C0 27.8666 0.952381 31.5199 2.61225 34.7732L10.5578 28.7466Z" fill="#FBBC05"/>
  <path d="M24.4897 48.0004C31.102 48.0004 36.653 45.8671 40.7074 42.1871L32.9795 36.3204C30.9115 37.7337 28.136 38.7204 24.4897 38.7204C18.0136 38.7204 12.517 34.5337 10.5578 28.7471L2.6394 34.7737C6.66662 42.6137 14.9115 48.0004 24.4897 48.0004Z" fill="#34A853"/>
</svg>